Coordinates
version=1
nRows=9
nColumns=42
inDegrees=yes

Units are S.I. units (second, meters, Newtons, ...)
If the header above contains a line with 'inDegrees', this indicates whether rotational values are in degrees (yes) or radians (no).

endheader
time	pelvis_tilt	pelvis_list	pelvis_rotation	pelvis_tx	pelvis_ty	pelvis_tz	hip_flexion_r	hip_adduction_r	hip_rotation_r	knee_angle_r	knee_adduction_r	knee_angle_r_beta	ankle_angle_r	subtalar_angle_r	mtp_angle_r	hip_flexion_l	hip_adduction_l	hip_rotation_l	knee_angle_l	knee_adduction_l	knee_angle_l_beta	ankle_angle_l	subtalar_angle_l	mtp_angle_l	lumbar_extension	lumbar_bending	lumbar_rotation	arm_flex_r	arm_add_r	arm_rot_r	elbow_flex_r	pro_sup_r	wrist_flex_r	wrist_dev_r	arm_flex_l	arm_add_l	arm_rot_l	elbow_flex_l	pro_sup_l	wrist_flex_l	wrist_dev_l
      2.22000000	      7.88272839	     -9.79056035	      1.09493046	     -1.26540094	      0.83019055	      0.32236013	      3.27223595	      9.00696401	    -29.35439964	     21.69451744	     -4.31961451	      0.37864076	     16.53434367	     27.68154117	     -7.55064336	    -11.12540313	    -14.31145232	    -18.99177252	     30.08098093	     -8.56205910	      0.52501216	     26.54476997	     22.95350055	     -7.55064336	    -25.37806518	      9.50348693	      1.55809195	     -8.42091382	     -0.20446928	    -11.23769748	    105.25857839	     90.00000001	      0.00000000	      0.00000000	     -2.30632451	     -8.98885340	    -19.73275442	     44.26757796	     90.00000001	      0.00000000	      0.00000000
      2.23000000	      7.73467934	     -9.66949134	      0.86064269	     -1.26305776	      0.83024071	      0.32397516	      3.18324175	      8.94834276	    -29.44151081	     21.63443352	     -4.28712236	      0.37759210	     16.59883185	     27.85505504	     -7.55044024	    -10.61248508	    -14.26353345	    -18.78441777	     31.13237032	     -8.89383612	      0.54336237	     26.10769142	     22.95230673	     -7.55044024	    -25.53394714	      9.36416998	      1.59776466	     -8.48041441	     -0.31059297	    -11.25869689	    105.31767980	     90.00000001	      0.00000000	      0.00000000	     -2.11851100	     -9.00120386	    -19.71401632	     44.39546469	     90.00000001	      0.00000000	      0.00000000
      2.24000000	      7.52543158	     -9.54000280	      0.68768605	     -1.26082323	      0.83025648	      0.32547260	      3.18187162	      8.88990794	    -29.52828037	     21.58031124	     -4.26478135	      0.37664748	     16.68960777	     28.10834165	     -7.55020583	     -9.90226776	    -14.29176670	    -18.60071664	     32.37946599	     -9.16554475	      0.56512829	     25.48076464	     22.92349238	     -7.55020583	    -25.61621701	      9.23919609	      1.51907457	     -8.63238286	     -0.46985778	    -11.33284532	    105.39303102	     90.00000001	      0.00000000	      0.00000000	     -1.83876234	     -9.00411035	    -19.68275469	     44.59603795	     90.00000001	      0.00000000	      0.00000000
      2.25000000	      6.82860038	     -9.52342143	      0.45064707	     -1.25879360	      0.82978020	      0.32700598	      3.86130402	      8.95010456	    -29.90142397	     21.67835772	     -4.47104774	      0.37835872	     16.96187266	     29.00403330	     -7.54917882	     -8.50161736	    -14.49132044	    -18.23299970	     33.90861522	     -9.37494398	      0.59181698	     23.98838304	     22.42974856	     -7.54917882	    -25.16085734	      9.28370199	      1.49626381	     -8.91939632	     -0.56431680	    -11.53142493	    105.59808069	     90.00000001	      0.00000000	      0.00000000	     -1.79001285	     -8.98493554	    -19.64799122	     45.04970136	     90.00000001	      0.00000000	      0.00000000
      2.26000000	      6.87542790	     -9.27650194	      0.29469333	     -1.25657771	      0.83011769	      0.32823621	      3.57523234	      8.74770346	    -29.89067579	     21.63845041	     -4.44260024	      0.37766220	     17.01962858	     29.19119750	     -7.54894158	     -8.04842351	    -14.33287785	    -17.90619582	     35.15507024	     -9.63390845	      0.61357172	     23.49243164	     22.40583436	     -7.54894158	    -25.50769493	      9.03925471	      1.38483745	     -9.14034691	     -0.79017202	    -11.69109845	    105.51390527	     90.00000001	      0.00000000	      0.00000000	     -1.48795559	     -8.97196028	    -19.61240978	     45.24652898	     90.00000001	      0.00000000	      0.00000000
      2.27000000	      6.46303095	     -9.10508846	      0.15395077	     -1.25458542	      0.82996400	      0.32946497	      3.92258951	      8.58915614	    -30.30726177	     21.75731659	     -4.55723464	      0.37973681	     17.35268822	     30.24216949	     -7.54636046	     -6.90579854	    -14.29058551	    -16.91747646	     36.79287295	     -9.59038691	      0.64215677	     21.71893216	     20.90858500	     -7.54636046	    -25.35337954	      8.92770627	      1.29011710	     -9.39696423	     -0.79272490	    -12.31209464	    105.32341009	     90.00000001	      0.00000000	      0.00000000	     -1.48888045	     -8.95639249	    -19.53247479	     46.05264113	     90.00000001	      0.00000000	      0.00000000
      2.28000000	      6.30287752	     -8.96829288	      0.02558191	     -1.25256917	      0.83008497	      0.33056597	      3.88547073	      8.54897982	    -30.22884227	     21.64808186	     -4.56425246	      0.37783031	     17.46361668	     30.39034612	     -7.54569768	     -6.01312994	    -14.31442344	    -16.34626553	     38.40443241	     -9.70977324	      0.67028379	     20.67274147	     20.92751484	     -7.54569768	    -25.47238017	      8.86417213	      1.23765930	     -9.71582604	     -1.02397667	    -12.57722581	    105.21181099	     90.00000001	      0.00000000	      0.00000000	     -1.24728266	     -8.91315953	    -19.48765125	     46.30881734	     90.00000001	      0.00000000	      0.00000000
      2.29000000	      6.14222800	     -8.78803990	     -0.10045858	     -1.25062003	      0.83019271	      0.33155334	      3.87501097	      8.43762602	    -30.14075732	     21.60004027	     -4.55550739	      0.37699182	     17.59431247	     30.49186905	     -7.54509094	     -5.06026310	    -14.28095466	    -15.71763407	     40.09057611	     -9.79934861	      0.69971255	     19.44595081	     20.85124060	     -7.54509094	    -25.58726455	      8.76023117	      1.18592239	    -10.00990208	     -1.22211658	    -12.95257269	    105.01764621	     90.00000001	      0.00000000	      0.00000000	     -1.02221713	     -8.88175249	    -19.45672273	     46.64148591	     90.00000001	      0.00000000	      0.00000000
      2.30000000	      5.88865250	     -8.60196677	     -0.23546184	     -1.24876203	      0.83018944	      0.33252711	      4.01061574	      8.37061993	    -29.97929983	     21.58155296	     -4.65611208	      0.37666916	     17.76512037	     30.39511503	     -7.54399699	     -3.94129452	    -14.23202999	    -14.85710680	     41.89594112	     -9.75400398	      0.73122212	     17.88372230	     20.43724624	     -7.54399699	    -25.58558698	      8.64117357	      1.12061822	    -10.25302040	     -1.34980691	    -13.43279675	    104.72451167	     90.00000001	      0.00000000	      0.00000000	     -0.91815081	     -8.85918301	    -19.40663208	     47.11497574	     90.00000001	      0.00000000	      0.00000000
